<mxfile host="app.diagrams.net" modified="2023-12-29T07:29:09.279Z" agent="Mozilla/5.0 (Windows NT 10.0; Win64; x64) AppleWebKit/537.36 (KHTML, like Gecko) Chrome/120.0.0.0 Safari/537.36 Edg/120.0.0.0" version="22.1.15" etag="5aRnvWr6n2QwP77q0cj6" type="github">
  <diagram name="페이지-1" id="WjET7foxqUCfRz4NSp_R">
    <mxGraphModel>
      <root>
        <mxCell id="0" />
        <mxCell id="1" parent="0" />
      </root>
    </mxGraphModel>
  </diagram>
</mxfile>
